<svg width="207" height="207" viewBox="0 0 207 207" fill="none" xmlns="http://www.w3.org/2000/svg">
<path d="M62.1185 207C56.4243 207 51.5514 204.975 47.4999 200.925C43.4415 196.867 41.4123 191.993 41.4123 186.3C41.4123 180.608 43.4415 175.733 47.4999 171.675C51.5514 167.625 56.4243 165.6 62.1185 165.6C67.8127 165.6 72.6855 167.625 76.737 171.675C80.7954 175.733 82.8247 180.608 82.8247 186.3C82.8247 191.993 80.7954 196.867 76.737 200.925C72.6855 204.975 67.8127 207 62.1185 207ZM165.649 207C159.955 207 155.082 204.975 151.031 200.925C146.972 196.867 144.943 191.993 144.943 186.3C144.943 180.608 146.972 175.733 151.031 171.675C155.082 167.625 159.955 165.6 165.649 165.6C171.344 165.6 176.22 167.625 180.278 171.675C184.33 175.733 186.355 180.608 186.355 186.3C186.355 191.993 184.33 196.867 180.278 200.925C176.22 204.975 171.344 207 165.649 207ZM62.1185 155.25C54.3537 155.25 48.4869 151.841 44.5183 145.024C40.5496 138.214 40.377 131.445 44.0006 124.718L57.9773 99.36L20.7062 20.7H10.0943C7.16088 20.7 4.74516 19.7064 2.8471 17.7192C0.949032 15.7389 0 13.2825 0 10.35C0 7.4175 0.993896 4.95765 2.98169 2.97045C4.96258 0.990149 7.41971 0 10.3531 0H27.1768C29.0749 0 30.8867 0.517501 32.6122 1.5525C34.3377 2.5875 35.6319 4.05375 36.4946 5.95125L43.4829 20.7H196.191C200.85 20.7 204.042 22.425 205.767 25.875C207.493 29.325 207.407 32.9475 205.509 36.7425L168.755 102.983C166.857 106.433 164.355 109.106 161.249 111.004C158.143 112.901 154.606 113.85 150.637 113.85H73.5069L62.1185 134.55H176.261C179.195 134.55 181.61 135.54 183.508 137.52C185.406 139.508 186.355 141.968 186.355 144.9C186.355 147.833 185.362 150.289 183.374 152.269C181.393 154.256 178.936 155.25 176.002 155.25H62.1185Z" fill="black"/>
</svg>
